<svg xml:space="preserve" style="enable-background:new 0 0 867 171;" viewBox="0 0 867 171" y="0px" x="0px" xmlns:xlink="http://www.w3.org/1999/xlink" xmlns="http://www.w3.org/2000/svg" id="Calque_1" version="1.1">
<g>
	<path d="M123.4,68.5l0.1-11.2l0,0h-8v30.2L79.7,63.8l-9.8-6.6l-0.1,0l0,0l0,0h-8v57.2h8V68.5l0-1.6L115.4,97v17.4h8V68.5z
		 M188.2,49.4L199.9,35l-9.7-0.2l-9.4,14.5l0,0.2H188.2z M156.3,114.3h58v-7.1h-50.1V88.7h29.7v-7.4h-29.7V64.3h48.3v-7.2h-56.2
		V114.3z M289,98.7c0,6.5-6.1,8.8-14.3,8.8l-28.1-0.1l0.1-18h28.8C283.9,89.4,289,93.3,289,98.7 M287.4,73.1c0,4.9-5.6,9-10.6,9h-30
		l-0.1-17.8c4.6,0,8.6-0.1,12-0.1c6.7,0,11.6-0.1,16.7-0.1C284.2,64.1,287.4,69.4,287.4,73.1 M288.9,84.7c4.9-3.1,7.2-7.5,7.2-12.4
		c0-8.1-6.6-14.6-17.8-15c-2.4-0.1-5.2-0.2-7.7-0.2h-32v57.2h31.8c2.5,0,5.2-0.1,7.7-0.3c11.8-0.7,19.7-5.6,19.7-15.9
		C297.8,92.6,294.5,87.2,288.9,84.7 M385,93.1v-36h-8v34.5c0,11-8.2,17.3-22.6,17.3c-7.3,0-13-1.6-16.9-4.6c-3.8-3-5.7-7.3-5.7-12.7
		V57.1h-8v36c0,6.9,2.8,12.7,8.1,16.8c5.4,4.2,13.2,6.4,22.5,6.4c9.3,0,17.1-2.2,22.5-6.4C382.2,105.8,385,100,385,93.1 M415,114.3
		h53.1v-7.1h-45.1V57.1h-8V114.3z M490.4,114.3h58v-7.1h-50.1V88.7h29.7v-7.4h-29.7V64.3h48.3v-7.2h-56.2V114.3z M632.3,93.1v-36h-8
		v34.5c0,11-8.2,17.3-22.6,17.3c-7.3,0-13-1.6-16.9-4.6c-3.8-3-5.7-7.3-5.7-12.7V57.1h-8v36c0,6.9,2.8,12.7,8.1,16.8
		c5.4,4.2,13.2,6.4,22.5,6.4c9.3,0,17.1-2.2,22.5-6.4C629.5,105.8,632.3,100,632.3,93.1 M666.4,73.1c0-8,11.6-10.8,21.5-10.8
		c17.6,0,23.2,6.8,24.9,12.5l0,0.1l6.9-2.4l0.1,0l0-0.1c-2.4-11.5-12.6-17.1-31.4-17.1c-11.6,0-31.2,3.9-31.2,18.5
		c0,12.9,16.5,13.7,31.1,14.4c12.4,0.6,24.1,1.1,24.1,8.8c0,11.4-19.6,12-23.5,12c-14.3,0-22.7-4-25-12l0-0.1l-6.8,2.5l-0.1,0l0,0.1
		c2.3,11.3,13.3,17.1,32.7,17.1c4.7,0,13.6-0.6,20.9-4.2c7-3.5,10.6-8.9,10.6-15.8c0-13.4-17-14.5-32.1-15.4
		C676.8,80.3,666.4,79.6,666.4,73.1 M755.1,107.2V88.7h29.7v-7.4h-29.7V64.3h48.3v-7.2h-56.2v57.2h58v-7.1H755.1z"></path>
</g>
</svg>
